/* XPM */
static const char *help_xpm[] = {
"28 31 74 1",
" 	c #185E0A",
".	c #B6DF7F",
"+	c #B3DE7B",
"@	c #ADDB6F",
"#	c #C5E69A",
"$	c #FBFEF9",
"%	c #B0DD77",
"&	c #F5FBEE",
"*	c #FDFEFC",
"=	c #C1E494",
"-	c #AEDC73",
";	c #F8FCF2",
">	c #FAFDF6",
",	c #CFEAAB",
"'	c #CBE8A5",
")	c #E0F2C9",
"!	c #BFE38F",
"~	c #C8E79F",
"{	c #BBE289",
"]	c #E7F5D5",
"^	c #E3F3CF",
"/	c #F3FAE9",
"(	c #B8E084",
"_	c #D3ECB1",
":	c #DAEFBD",
"<	c #DDF1C3",
"[	c #D6EEB7",
"}	c #EAF6DA",
"|	c #F0F9E4",
"1	c #EDF7DF",
"2	c #407B32",
"3	c #639552",
"4	c #8EB47F",
"5	c #BCD3B1",
"6	c #61944D",
"7	c #327125",
"8	c #427F2B",
"9	c #4E843F",
"0	c #6CA14D",
"a	c #458131",
"b	c #669656",
"c	c #417F2A",
"d	c #B8D6A0",
"e	c #DDEDCD",
"f	c #7EA96D",
"g	c #246714",
"h	c #8CB672",
"i	c #246715",
"j	c #4F8541",
"k	c #A7CD83",
"l	c #669A4B",
"m	c #CADDBF",
"n	c #E0EDD2",
"o	c #B5D49B",
"p	c #9EC57E",
"q	c #4C843D",
"r	c #6AA04A",
"s	c #7CAF56",
"t	c #45802F",
"u	c #83AB75",
"v	c #ACCC95",
"w	c #77A661",
"x	c #E2EFD6",
"y	c #4B833B",
"z	c #689F47",
"A	c #60944B",
"B	c #B5D0A6",
"C	c #6A995C",
"D	c #528A3E",
"E	c #BAD2AD",
"F	c #82AB72",
"G	c #90BF65",
"H	c #A1C783",
"I	c #458132",
"                            ",
" ************************** ",
" $$$$$$$$$$$$$$$$$$$$$$$$$$ ",
" >>>>>>>>>>>>>>>>>>>>>>>>>> ",
" ;;;;;;;;;;;;;;;;;;;;;;;;;; ",
" &&&&&&&&&&&&&&&&&&&&&&&&&& ",
" ///////////m55//////////// ",
" ||||||||Ej     Cx||||||||| ",
" 11111111u  297  2n11111111 ",
" }}}}}}}}4Fe}}}B  4}}}}}}}} ",
" ]]]]]]]]]]]]]]]b q]]]]]]]] ",
" ^^^^^^^^^^^^^^^f y^^^^^^^^ ",
" )))))))))))))))3 3)))))))) ",
" <<<<<<<<<<<<<<d  v<<<<<<<< ",
" :::::::::::::oi 6::::::::: ",
" [[[[[[[[[[[[w  A[[[[[[[[[[ ",
" ___________D gh___________ ",
" ,,,,,,,,,,,I H,,,,,,,,,,,, ",
" '''''''''''a p'''''''''''' ",
" ~~~~~~~~~~~ltk~~~~~~~~~~~~ ",
" ########################## ",
" ========================== ",
" !!!!!!!!!!!8 0!!!!!!!!!!!! ",
" {{{{{{{{{{{c r{{{{{{{{{{{{ ",
" (((((((((((szG(((((((((((( ",
" .......................... ",
" ++++++++++++++++++++++++++ ",
" %%%%%%%%%%%%%%%%%%%%%%%%%% ",
" -------------------------- ",
" @@@@@@@@@@@@@@@@@@@@@@@@@@ ",
"                            "};
